<?xml version="1.0" standalone="no"?>
<!DOCTYPE svg PUBLIC "-//W3C//DTD SVG 1.1//EN" "http://www.w3.org/Graphics/SVG/1.1/DTD/svg11.dtd" >
<svg xmlns="http://www.w3.org/2000/svg">
<defs>
  <font id="hiIcon" horiz-adv-x="1519">
    <font-face font-family="hiIcon"
      units-per-em="1024" ascent="1024"
      descent="0" />
    <missing-glyph horiz-adv-x="0" />
    <glyph glyph-name="account"
      unicode="&#xE001;"
      horiz-adv-x="1024" d="M512 1024C227.556 1024 0 796.444 0 512C0 233.2440000000001 227.556 0 512 0C790.756 0 1024 227.5560000000001 1024 512C1018.311 796.444 790.756 1024 512 1024zM512 119.467C438.044 119.467 375.467 136.534 318.578 170.667C358.4 238.934 432.356 284.4450000000001 512 284.4450000000001S671.289 238.9340000000001 705.422 170.667C648.533 136.534 580.2660000000001 119.467 512 119.467zM512 403.911C449.4220000000001 403.911 398.222 455.111 398.222 512C398.222 574.578 449.422 625.778 512 625.778C568.889 625.778 620.0889999999999 574.578 620.0889999999999 512C620.0889999999999 455.111 568.8889999999999 403.9110000000001 511.9999999999999 403.9110000000001zM796.444 238.933C762.3109999999999 290.1330000000001 722.4879999999999 329.9550000000001 671.288 358.4C711.11 398.222 733.866 455.111 733.866 512C733.866 637.156 631.466 739.556 511.999 739.556S284.443 637.1560000000001 284.443 512C284.443 449.4220000000001 307.199 398.222 347.021 358.4C295.821 329.956 250.31 290.1330000000001 221.865 238.933C153.598 312.889 113.776 409.6 113.776 512C113.776 728.178 290.132 910.222 511.9979999999999 910.222S910.22 733.866 910.22 512C904.531 409.6 864.709 312.889 796.4419999999999 238.933z" />
    <glyph glyph-name="alert"
      unicode="&#xE002;"
      horiz-adv-x="853" d="M426.5 0C485.406 0 533.167 38.2090000000001 533.167 85.333H319.8340000000001C319.8340000000001 38.208 367.5860000000001 0 426.5010000000001 0zM207.231 252.4L207.094 295.2629999999999L206.06 616.751C205.737 719.459 275.293 807.4469999999999 375.224 830.7349999999999L424.515 842.2209999999999L473.883 831.0509999999999C573.9499999999999 808.4029999999999 644.078 720.8589999999999 644.403 618.151L645.4440000000001 296.663L645.581 253.808L207.232 252.4zM852.697 297.328L747.875 296.995L746.842 618.483C746.355 771.188 639.408 898.592 496.496 930.925L496.428 952.003C496.3 991.897 463.844 1024.136 423.935 1024C384.0180000000001 1023.88 351.775 991.428 351.903 951.534L351.971 930.456C209.264 897.21 103.136 769.123 103.622 616.427L104.655 294.9310000000001L-0.167 294.5980000000001L0.303 149.3340000000001L853.167 152.0730000000001L852.697 297.3290000000001z" />
    <glyph glyph-name="award"
      unicode="&#xE003;"
      horiz-adv-x="957" d="M743.405 553.46C816.866 671.443 803.509 827.269 701.1089999999999 927.443V927.443C583.126 1045.426 393.909 1045.426 275.926 927.443C180.204 831.721 162.3959999999999 687.026 222.5 573.495L11.0219999999999 134.956H186.8829999999999L298.1869999999999 8.069L478.4999999999999 382.0519999999999L658.8129999999999 8.069L770.1169999999998 134.9559999999999H945.9779999999998L743.4039999999998 553.4599999999999zM356.066 849.53C393.909 887.373 440.657 905.182 489.631 905.182S587.579 887.373 623.1959999999999 849.53C696.6569999999999 776.069 696.6569999999999 655.86 623.1959999999999 582.4S429.526 508.939 356.0659999999999 582.4C282.6049999999999 655.861 282.6049999999999 776.0699999999999 356.0659999999999 849.53zM275.927 168.347L226.9530000000001 223.999H151.266L282.605 495.5820000000001C318.2220000000001 464.4170000000001 358.2920000000001 439.9300000000001 400.588 428.7990000000001L275.927 168.3470000000001zM727.822 224L678.848 168.348L556.413 424.348C600.9350000000001 433.252 641.004 453.2869999999999 678.848 482.226L803.509 224H727.822z" />
    <glyph glyph-name="browse-files"
      unicode="&#xE004;"
      horiz-adv-x="1092.2666666666667" d="M581.8127858346667 328.5802120533333L581.8127858346667 882.465435648L741.1809621333334 714.9245323946667L792.3214950400001 767.43735296L546.1333428906668 1026.2505396906668L299.9451900586667 767.43735296L351.0857243306666 714.9245323946667L510.4539006293333 882.465435648L510.4539006293333 328.5802120533333zM1027.80581888 433.605851136L956.4469316266666 433.605851136L956.4469316266666 141.0344209066666L135.8197541546667 141.0344209066666L135.8197541546667 433.605851136L64.4608692155733 433.605851136L64.4608692155733 66.0161058133334L1027.80581888 66.0161058133334z" />
    <glyph glyph-name="contract"
      unicode="&#xE005;"
      horiz-adv-x="728" d="M716.711 1017.173H11.289V778.24L291.182 498.347L22.6659999999999 229.8309999999999V6.8269999999999H705.333V229.8309999999999L436.817 498.347L716.7099999999999 778.24V1017.173zM602.933 823.751L364 584.818L125.067 823.751V903.395H602.934V823.751z" />
    <glyph glyph-name="digitalservices"
      unicode="&#xE006;"
      horiz-adv-x="1024" d="M1022.72 517.12V517.12V1021.44H1.28V2.5599999999999H1022.72V517.1199999999999zM129.28 512H510.72V893.44H892.1600000000001V517.12H510.7200000000001V128H129.2800000000001V512z" />
    <glyph glyph-name="directhire"
      unicode="&#xE007;"
      horiz-adv-x="1024" d="M0 1024V0H1024V1024H0zM896 128H128V896H896V128zM839.68 696.3199999999999L747.52 788.48L376.32 422.4L250.88 547.8399999999999L158.72 455.6799999999999L376.32 243.2z" />
    <glyph glyph-name="dropbox-icon"
      unicode="&#xE008;"
      horiz-adv-x="1204.7058823529412" d="M28.8214033777921 796.1534343529413L288.0818337831072 950.656830982253L547.3422641884218 796.1534343529412L288.0818337831072 641.6500377236293zM28.8214059333593 458.3252303856093L288.0818363386743 612.8286270149213L547.3422658921336 458.325231237465L288.081836764602 303.8218333303696zM657.3635904792089 796.1534586308287L916.6240208845238 950.6568552601406L1175.8844542713337 796.1534616123237L916.6240238660188 641.6500649830118zM657.363593034776 458.3252546634968L916.624023440091 612.8286512928087L1175.8844559750453 458.3252584968475L916.6240268475136 303.821860589752zM343.0925137526505 219.9897725032565L602.3529411764706 374.4931687066405L861.6133745632804 219.9897750588235L602.3529437320377 65.4863754480168z" />
    <glyph glyph-name="executivesearch"
      unicode="&#xE009;"
      horiz-adv-x="1024" d="M1014.898 92.302L771.414 335.7860000000001C898.845 501.902 885.192 740.835 735.005 893.297V893.297C568.889 1057.137 298.098 1057.137 134.2580000000001 891.021C54.614 811.377 9.102 704.425 9.102 590.648S52.338 369.919 134.2580000000001 290.2750000000001C213.9020000000001 210.6310000000001 320.8540000000001 165.1190000000002 434.6310000000001 165.1190000000002C527.9290000000001 165.1190000000002 618.951 196.9770000000001 691.769 251.5900000000002L935.253 8.1060000000001L1014.897 92.3020000000001zM653.085 372.1950000000001C646.258 365.3680000000001 637.1560000000001 356.2660000000001 628.0540000000001 351.7150000000001L593.921 545.1370000000001L730.4540000000001 677.119C762.312 572.443 735.0050000000001 454.115 653.085 372.1950000000001zM721.352 706.702L532.481 734.009L452.837 902.4C525.655 897.849 598.473 868.267 655.361 811.3779999999999C684.943 781.796 707.699 745.387 721.352 706.702zM514.276 488.248L434.632 529.2080000000001L354.988 488.248L370.9169999999999 576.9950000000001L307.2009999999999 638.4350000000001L395.9479999999999 652.0880000000001L434.632 731.7320000000001L473.3159999999999 652.0880000000001L562.0629999999999 638.4350000000001L498.3469999999999 576.9950000000001L514.2759999999998 488.248zM416.427 902.399L334.507 736.283L145.636 708.976C161.565 747.66 184.32 784.069 213.903 813.652C270.792 868.265 343.61 897.848 416.427 902.399zM122.881 590.648C122.881 620.23 127.432 649.812 134.259 677.119L273.068 542.861L238.935 347.163C229.833 353.99 220.731 360.8160000000001 213.904 369.919C154.74 431.3589999999999 122.882 508.728 122.882 590.648zM259.414 335.786L434.632 429.084L609.8499999999999 338.0619999999999C557.512 301.6529999999999 498.3479999999999 283.4489999999999 434.632 283.4489999999999C370.916 281.1729999999999 309.476 299.3779999999998 259.414 335.7869999999998z" />
    <glyph glyph-name="google-drive"
      unicode="&#xE00A;"
      horiz-adv-x="1185.6842105263158" d="M398.821052631579 970.1052631578948L452.7157894736842 916.2105263157894L803.7546630736841 310.7514960842106L749.8599262315789 364.6462329263158zM240.7298247410527 32.8127811368422L294.6245615831579 -21.081955705263L643.4480262736841 585.6561405305264L589.553289431579 639.5508773726316zM427.5649121010526 365.2051429052632L481.4596489431578 311.310406063158L1181.3219866947368 312.5894736842106L1127.4272498526316 366.4842105263159zM778.7241094736842 970.1052631578946L832.6188463157894 916.2105263157894L1183.6577199157894 310.7514960842106L1129.7629830736842 364.6462329263158zM1131.7894736842104 364.6462329263158L944.3488498526316 35.9298263578949L241.8444649094737 35.9298263578949L53.8947368421053 364.6462329263158L403.9731140715789 970.1052631578948L778.7241094736842 970.1052631578948z" />
    <glyph glyph-name="jobsapplied"
      unicode="&#xE00B;"
      horiz-adv-x="1502" d="M8.6 0H906.307V1024H8.6V0zM459.16 324.2670000000001C404.5470000000001 324.2670000000001 360.173 368.6400000000001 360.173 423.254S404.546 522.241 459.16 522.241S558.1469999999999 477.8679999999999 558.1469999999999 423.254C558.1469999999999 368.6410000000001 513.7739999999999 324.2670000000001 459.16 324.2670000000001zM462.573 221.867C544.4929999999999 221.867 612.76 174.0799999999999 643.48 102.4H281.6670000000001C312.3870000000001 174.0799999999999 380.654 221.867 462.5740000000001 221.867zM111 921.6H803.907V102.4H752.707C732.227 180.9069999999999 677.614 249.173 605.934 286.7200000000001C640.067 324.2670000000001 660.547 372.053 660.547 423.2530000000001C660.547 532.48 571.8000000000001 624.6400000000001 459.16 624.6400000000001S257.773 535.893 257.773 423.2530000000001C257.773 368.6400000000001 278.2530000000001 320.8530000000001 315.8 283.3060000000001C247.533 245.759 196.333 177.4930000000001 175.853 102.399H111V921.599zM1056.493 361.813H1455.853V259.413H1056.493V361.813zM1056.493 112.64H1455.853V10.24H1056.493V112.64zM1493.4 887.467L1421.72 959.147L1210.093 747.52L1145.24 812.373L1070.147 740.693L1210.094 600.746z" />
    <glyph glyph-name="location"
      unicode="&#xE00C;"
      horiz-adv-x="1024" d="M512 0L221.732 419.2760000000001C173.3540000000001 483.7800000000001 149.165 564.4100000000001 149.165 645.0400000000001C149.165 854.6780000000001 310.424 1024 512 1024S874.835 854.6780000000001 874.835 645.0400000000001C874.835 572.4730000000001 858.7090000000001 499.9060000000001 818.395 443.4650000000002L802.269 419.2760000000002L512.001 2e-13zM512 870.804C399.118 870.804 310.425 774.048 310.425 653.1030000000001C310.425 604.725 326.551 556.347 350.74 516.032L511.999 282.2050000000001L681.321 532.158C705.51 564.4100000000001 713.573 604.725 713.573 653.1030000000001C713.573 774.048 624.88 870.804 511.998 870.804z" />
    <glyph glyph-name="managedservices"
      unicode="&#xE00D;"
      horiz-adv-x="959" d="M942.478 551.217C942.478 808.306 735.4989999999999 1015.285 480.5889999999999 1015.285S16.521 808.3059999999999 16.521 551.217H18.7V531.608L478.4109999999999 13.0720000000001L480.5899999999999 8.7150000000001V10.8940000000001L942.479 531.6090000000002V551.2180000000001zM480.589 906.349C624.385 906.349 748.572 819.2 803.04 697.192C787.789 701.549 770.3589999999999 701.549 752.929 701.549C698.461 701.549 650.529 684.119 617.848 657.975C582.9879999999999 686.298 535.057 701.549 482.7669999999999 701.549S380.367 684.119 347.6859999999999 657.975C312.8259999999999 686.298 264.8949999999999 701.549 212.6049999999999 701.549C195.1749999999999 701.549 175.567 699.3700000000001 160.3159999999999 695.013C212.6049999999999 819.2 336.7929999999999 906.349 480.5879999999999 906.349zM402.155 557.7529999999999C408.691 573.0039999999999 439.193 592.613 482.768 592.613S556.845 573.004 563.381 557.7529999999999L482.768 333.3440000000001L402.155 557.753zM134.172 566.4680000000001C145.066 579.54 173.389 594.7909999999999 210.427 594.7909999999999C258.359 594.7909999999999 291.04 570.825 291.04 553.395V553.395V544.6800000000001L382.546 285.4120000000001L134.172 566.4670000000001zM578.631 285.413L670.137 542.502V551.217C670.137 568.6469999999999 702.818 592.613 750.75 592.613C787.788 592.613 813.933 579.5409999999999 827.005 564.29L578.631 285.413z" />
    <glyph glyph-name="nav-arrow-down"
      unicode="&#xE00E;"
      horiz-adv-x="1312" d="M1182.464 1024H0L591.232 0L886.848 512z" />
    <glyph glyph-name="nav-arrow-left"
      unicode="&#xE00F;"
      horiz-adv-x="480" d="M463.232 916.576L347.0080000000001 999.616L24.384 511.424L347.072 24.384L463.2 107.5840000000001L195.552 511.5520000000001z" />
    <glyph glyph-name="nav-arrow-right"
      unicode="&#xE010;"
      horiz-adv-x="480" d="M24.384 107.424L140.608 24.384L463.232 512.576L140.5440000000001 999.616L24.416 916.416L292.0640000000001 512.4480000000001z" />
    <glyph glyph-name="nav-arrow-up"
      unicode="&#xE011;"
      horiz-adv-x="1152" d="M64 64H1088L576 960L320 512z" />
    <glyph glyph-name="offshorestaffing"
      unicode="&#xE012;"
      horiz-adv-x="1024" d="M513.105 1010.643C513.105 1010.643 513.105 1010.643 513.105 1010.643C510.879 1010.643 510.879 1010.643 508.653 1010.643S504.201 1010.643 501.975 1010.643C230.392 1006.191 12.236 783.582 12.236 512S230.3930000000001 17.809 501.975 13.357C504.201 13.357 506.427 13.357 508.653 13.357C508.653 13.357 508.653 13.357 510.879 13.357C510.879 13.357 513.105 13.357 513.105 13.357C789.1400000000001 13.357 1011.748 238.192 1011.748 512C1013.974 785.809 789.139 1010.643 513.105 1010.643zM898.218 567.6510000000001H815.853C809.175 661.1469999999999 789.14 743.512 755.7489999999999 814.7470000000001C831.4359999999999 752.417 882.636 665.599 898.2189999999999 567.6510000000001zM457.453 883.756V567.652H317.21C328.34 703.443 381.767 839.2350000000001 457.453 883.7560000000001zM457.453 456.347V140.243C381.766 184.765 328.34 320.556 317.21 456.347H457.453zM568.757 142.4690000000001V456.347H702.3219999999999C693.4179999999999 322.782 642.2179999999998 191.443 568.7569999999998 142.4690000000001zM568.757 567.6510000000001V879.303C642.218 830.329 691.192 698.99 702.3219999999999 565.425H568.7569999999998zM259.331 803.616C230.392 736.8330000000001 210.357 654.4680000000001 203.679 565.425H130.218C143.575 661.1469999999999 190.322 743.512 259.331 803.616zM130.218 456.347H205.905C212.583 367.304 230.392 287.164 261.557 218.156C190.322 278.26 143.574 360.626 130.218 456.347zM755.748 209.251C786.913 278.26 809.1740000000001 362.851 815.8520000000001 456.347H898.2170000000001C882.6340000000001 356.173 831.4340000000001 269.356 755.7470000000001 209.251z" />
    <glyph glyph-name="right-arrow"
      unicode="&#xE013;"
      horiz-adv-x="1519" d="M1429.954 592.319C1290.6109999999999 730.2570000000001 1151.441 868.0360000000001 1012.155 1005.94L931.03 925.615C1050.146 807.667 1169.033 689.97 1287.884 572.307H7.9100000000001V451.671H1287.884L931.03 98.385L1012.155 18.0599999999999C1151.625 156.135 1290.841 293.9700000000001 1429.954 431.6689999999999C1457.003 458.4479999999999 1484.041 485.2379999999998 1511.091 511.9939999999999C1483.7769999999998 539.0239999999999 1456.8539999999998 565.6889999999999 1429.954 592.319z" />
    <glyph glyph-name="savedjob"
      unicode="&#xE014;"
      horiz-adv-x="1075" d="M1075.1 634.88L701.3399999999999 686.0799999999999L537.4999999999999 1024L373.6599999999999 686.0799999999999L-0.1000000000001 634.88L266.1399999999999 368.64L204.6999999999999 0L537.4999999999999 174.0800000000001L870.3 0L808.8599999999999 368.64z" />
    <glyph glyph-name="search"
      unicode="&#xE015;"
      horiz-adv-x="1024" d="M256.255 374.11C203.676 426.674 174.729 496.581 174.729 570.927S203.676 715.1800000000001 256.255 767.744C308.819 820.3230000000001 378.726 849.27 453.072 849.27C527.434 849.27 597.325 820.3230000000001 649.889 767.744C702.468 715.1800000000001 731.415 645.273 731.415 570.927S702.468 426.674 649.889 374.11C597.325 321.5310000000001 527.433 292.5840000000001 453.072 292.5840000000001C378.725 292.5840000000001 308.819 321.5310000000001 256.255 374.11V374.11zM1024 123.549L829.279 318.284C879.266 392.3540000000001 906.146 479.573 906.146 570.927C906.146 691.956 859.0129999999999 805.734 773.453 891.307C687.88 976.866 574.102 1024 453.073 1024C332.058 1024 218.281 976.867 132.707 891.307C47.134 805.734 0 691.956 0 570.927C0 449.9120000000001 47.133 336.135 132.707 250.5610000000001S332.058 117.8540000000001 453.073 117.8540000000001C544.441 117.8540000000001 631.646 144.7470000000001 705.731 194.721L900.452 0L1024 123.548z" />
    <glyph glyph-name="star"
      unicode="&#xE016;"
      horiz-adv-x="1097" d="M1097.072 633.905L719.1669999999999 687.5429999999999L548.4999999999999 1024L377.8329999999999 687.5429999999999L-0.0720000000001 633.905L272.9949999999999 370.5909999999999L209.6049999999999 0.001L548.4999999999999 175.544L887.3949999999999 0.001L821.5659999999999 370.5909999999999L1097.071 633.905zM548.5 285.257L338.824 177.981L377.834 407.1620000000001L212.044 565.638L443.663 599.771L548.501 809.447L653.3389999999999 599.771L884.958 565.638L719.168 407.1620000000001L758.178 177.981L548.502 285.257z" />
    <glyph glyph-name="trophy"
      unicode="&#xE017;"
      horiz-adv-x="976" d="M919.864 1006.139C905.576 1013.283 891.287 1018.046 874.6170000000001 1018.046H100.6640000000001C86.3760000000001 1018.046 69.7060000000001 1013.283 55.4170000000001 1006.139C33.9840000000001 994.232 17.3150000000001 975.181 10.1700000000001 948.986C3.0260000000001 925.172 5.4070000000001 898.977 17.3140000000001 877.544C72.0860000000001 777.525 95.9000000000001 748.9490000000001 107.8070000000001 737.042C126.8580000000001 717.991 155.4350000000001 703.702 191.1560000000001 694.177V637.024C191.1560000000001 496.5219999999999 293.5560000000002 377.452 429.2960000000001 356.019V248.856H334.0400000000001V153.6H619.807V248.856H524.551V356.019C660.291 379.833 762.691 496.521 762.691 637.024V689.415C807.938 696.559 843.658 713.229 867.472 737.043C881.76 751.331 903.193 779.908 957.965 877.5450000000001C984.16 922.792 965.109 982.326 919.863 1006.14zM174.487 803.72C169.724 810.864 148.292 834.678 100.664 922.79H191.157V794.1949999999999C184.013 796.576 179.25 801.3389999999999 174.487 803.721zM667.436 637.023C667.436 532.242 581.706 446.511 476.924 446.511S286.4120000000001 532.241 286.4120000000001 637.0229999999999V922.79H667.4350000000001V637.0229999999999zM800.794 803.72C796.031 798.957 784.124 791.813 762.692 787.05V922.79H874.618C826.99 834.678 805.558 810.864 800.7950000000001 803.72zM238.785 101.209H715.064V5.953H238.785V101.209z" />
  </font>
</defs>
</svg>
